<?xml version="1.0" encoding="utf-8"?>
<!-- Generator: Adobe Illustrator 26.5.0, SVG Export Plug-In . SVG Version: 6.00 Build 0)  -->
<svg version="1.1" id="Layer_1" xmlns="http://www.w3.org/2000/svg" xmlns:xlink="http://www.w3.org/1999/xlink" x="0px" y="0px"
	 viewBox="0 0 251.4 52.4" style="enable-background:new 0 0 251.4 52.4;" xml:space="preserve">
<style type="text/css">
	.st0{fill:none;stroke:#000000;stroke-width:5;stroke-linecap:round;stroke-linejoin:round;stroke-miterlimit:10;}
	.st1{fill:none;stroke:#999999;stroke-width:3;stroke-linecap:round;stroke-linejoin:round;stroke-miterlimit:10;}
</style>
<path class="st0" d="M8.1,52.4"/>
<path class="st1" d="M249.9,40.6c-4.7-0.1-9.4,0.3-13.8-1.3c-9.5-3.6-21-14-31.1-15.3c-4.9-0.6-11,0.8-12.5,3.6
	c-1.4,2.8-1,4.7-1,4.7c0,6.2,3.3,8.7,7.8,8.7c1.3,0,2.7-0.1,4.1-0.5v-5c-1.1,0.5-2.2,0.7-3.1,0.7c-2.1,0-3.5-1.3-3.5-4.3V20.3h6.2
	v-4.7h-6.2v-9h-5.2v9c0,2.5-0.6,3.1-2.1,4.6l-0.8,0.5c-2.4,1.7-5.5,2.2-8.5,2.1c-1.2,0-2.6-0.2-3.4-1.1c-0.9-1-0.9-2.9,0.2-3.8
	l0.5,0c6.7,0,10.3,4.6,10.3,11.6c0,7.2-4.2,11.6-11,11.6c-6.8,0-11-4.4-11-11.6c0-5.1,2.2-8.8,5.9-10.6l0.1,0c1.3-0.2,2.5,0.7,3,1.9
	s0.3,2.5-0.2,3.7c-0.5,1.2-1.3,2.1-2.2,3.1c-1.4,1.6-2.8,3.3-4.6,4.5c-1.3,0.8-2.7,1.3-4.1,1.7c-2.4,0.7-4.8,1.3-7.3,1.8
	c-3.8,0.7-7.7,1-11.4,2.3c-1.5,0.5-3,1.2-4.5,1.7c-1.9,0.7-3.8,1.1-5.7,1.5l0,0.2h17c6.3,0,9.2-2.9,9.2-9.2c0-3.4-1.5-7.6-8.4-7.8
	l-9.4,0.2l-0.1-4l9.4-0.1c4.7-0.2,7.4-1.7,7.4-6.3c0-5-3.1-7.8-8.6-7.8h-16.5v18.9l-0.8,4.4l-7.3,8.1c-0.9,1-1.7,1.7-2.5,2.3
	c-0.8,0.6-1.7,1-2.4,1c-0.6,0-1-0.3-1.2-0.5c-0.3-0.3-0.4-0.7-0.4-1.2c0-0.7,0.2-1.5,0.7-2.3l6.3-10.9c0.3-0.6,0.5-1.2,0.5-1.7
	c0-0.6-0.2-1.1-0.6-1.5c-0.4-0.4-0.9-0.6-1.6-0.6c-0.5,0-0.9,0.1-1.3,0.3c0,0-0.8,0.2-1.7,1.1c-0.9,0.8-1.1,1.4-1.6,2.1
	c-0.6,0.9-7.8,14.4-8.7,15.2c-0.2,0.2-0.2,0.4-0.4,0.3c-0.3-0.2-0.4-0.3-0.3-0.7l0.1-0.2c0,0,9.6-16.3,9.3-17.3
	c-0.1-0.5-0.1-0.5-0.3-0.6c-0.2-0.2-0.5-0.2-0.9-0.2c-0.4,0-0.8,0.2-1.2,0.5c-0.5,0.4-1.1,1-1.8,1.9c-0.2,0.3-0.4,0.5-0.5,0.6
	l-4.2,4.7l-0.6,0.8l-4.7,5.2c-1.7,1.9-3.2,3.2-4.4,4c-1.2,0.8-2.4,1.2-3.6,1.2c-0.8,0-1.5-0.3-1.9-0.9c-0.5-0.6-0.9-1.4-0.9-2.3
	c0-1.4,0.4-2.8,0.9-4.2c0.5-1.4,1.4-2.5,2-3.7c2.1-4.1,5.7-8.4,9.4-7.9c0.5,0.1,1,0.2,1.4,0.5c0.4,0.3,0.6,0.8,0.6,1.4
	c0,0.9-0.4,1.7-1.4,2.5c-1,0.8-2.2,1.4-3.5,1.9c-1.4,0.5-3.1,1-5.1,1.6l-1.3,0.4c-3.1,0-3.4,6-7,9.1c-1.8,1.5-3.9,2.1-6.3,1.7
	c-3.3-0.5-6.2-2-8.9-4c-3-2.2-5.9-6.2-9.1-8c-3.3-1.7-7.2-2.4-10.8-1.8c-2.2,0.3-4.2,1.2-5.9,2.6c-0.9,0.7-1.6,1.6-1.9,2.7
	c-0.3,0.8-0.5,2.1-0.3,2.9c0.3,2,1.2,3.4,2.9,4.5c1.7,1.1,4.1,1.3,6.1,0.7l2-1.1c1.5-1.2,3.8-3.4,6.4-6.2l2.6-2.9L97.2,2.4l-1.1-0.2
	c-2.6,0.9-5.2,1.4-7.4,1.4c-1,0-2.1-0.1-3-0.2c-0.9-0.2-2.1-0.4-3.6-0.7c-1.6-0.4-3-0.6-4.3-0.9c-1.3-0.2-2.7-0.3-4.2-0.3
	c-2.1,0-4,0.5-5.6,1.4c-1.6,0.9-2.8,2.1-3.7,3.5c-0.8,1.4-1.3,2.9-1.3,4.3c0,1.6,0.3,3,1,4.1c0.6,1.1,1.5,2,2.7,2.7
	c1.1,0.6,2.5,0.9,4,0.9l0.1,0c1.4,0,2.8-1.1,3-2.5s-0.6-2.8-1.8-3.6s-2.6-1.1-4-1.2c-4.9-0.3-9.6,1.8-13.9,4.1
	C45.4,20.1,37.4,26.4,29,31.9c-2,1.3-12.2,8.8-27.5,8.8"/>
</svg>
