<?xml version="1.0" encoding="utf-8"?>
<!-- Generator: Adobe Illustrator 26.5.0, SVG Export Plug-In . SVG Version: 6.00 Build 0)  -->
<svg version="1.1" xmlns="http://www.w3.org/2000/svg" xmlns:xlink="http://www.w3.org/1999/xlink" x="0px" y="0px"
viewBox="0 0 1430.4 792" style="enable-background:new 0 0 1430.4 792;" xml:space="preserve">
<style type="text/css">
.st0{fill:none;stroke:#000000;stroke-width:5;stroke-linecap:round;stroke-linejoin:round;stroke-miterlimit:10;}
.st1{fill:#999999;}
</style>
	<path class="st1" d="M1468.6,474.2c-38.5-1.1-77-1.5-115.4-2.2c-18.9-0.3-37.7-0.6-56.5-1.1c-24.8-0.6-51.3,2.2-75.3-5.1
		c-42.2-12.8-69.8-51.8-108.9-70.7c-18.4-8.9-38.3-11.9-58.6-8.9c-18.3,2.7-35.7,9.3-41.5,28.2c-4.7,15.3-1.9,36.9,8.2,49.4
		c13,16,36,15.8,54.3,10.9c1.1-0.3,1.8-1.3,1.8-2.4c0-8.5,0-17,0-25.5c0-1.5-1.6-3-3.2-2.4c-6.7,2.7-15,5.6-22.1,2.5
		c-7.2-3.2-8.7-11-8.9-18.2c-0.1-5.2,0-10.5,0-15.8c0-14.7,0-29.4,0-44.1c-0.8,0.8-1.7,1.7-2.5,2.5c10.5,0,21.1,0,31.6,0
		c1.4,0,2.5-1.1,2.5-2.5c0-8.1,0-16.1,0-24.2c0-1.4-1.1-2.5-2.5-2.5c-10.5,0-21.1,0-31.6,0c0.8,0.8,1.7,1.7,2.5,2.5
		c0-15.3,0-30.6,0-45.9c0-1.4-1.1-2.5-2.5-2.5c-8.9,0-17.8,0-26.7,0c-1.4,0-2.5,1.1-2.5,2.5c0,12.6,0,25.2,0,37.8
		c0,5.6,0.6,12-1,17.3c-3.2,10.3-14.9,17.2-24.3,20.8c-6.9,2.6-14.3,3.9-21.6,4.3c-6.8,0.4-15.9,1.2-21.9-2.6
		c-4.2-2.7-6.2-7.8-5-12.7c0.8-3.1,1.6-3.9,4.2-4.5c5.1-1.1,12.5,0.9,17.4,2.5c22.1,6.9,31.7,28.4,32.7,50.1
		c1,22.5-6.7,46.1-28.5,56.1c-19.7,9.1-47.3,6.6-63.2-9c-17-16.6-19.5-45.8-11.5-67.3c3.9-10.4,12.2-22.6,23.1-26.6
		c9-3.3,15.3,7,15.1,14.8c-0.2,8.9-5.9,16.4-11.3,22.9c-11.5,14.2-22.9,25.5-40.7,31.4c-17.1,5.7-34.8,9.5-52.6,12.3
		c-16.7,2.7-33.6,5-49.6,10.8c-16.5,6-32.3,11.8-49.5,15.7c-1,0.2-1.9,1.4-1.8,2.4c0,0.4,0.1,0.7,0.1,1.1c0.1,1.3,1,2.5,2.5,2.5
		c15.8,0,31.5,0,47.3,0c16.1,0,32.8,1.2,48.9-0.5c11.3-1.2,22.5-5.1,29.9-14c7.6-9.1,9.9-21.4,10.1-33
		c0.5-24.3-13.7-41.1-38.1-44.1c-18-2.3-37.1,0.2-55.2,0.6c0.8,0.8,1.7,1.7,2.5,2.5c-0.1-6.8-0.2-13.6-0.3-20.4
		c-0.8,0.8-1.7,1.7-2.5,2.5c15.3-0.2,30.7-0.4,46-0.7c19.5-0.4,39.2-6.2,41.9-28.3c3-24.6-11.2-44.6-35.9-48.2
		c-14.3-2.1-29.6-0.7-44-0.7c-16.8,0-33.7,0-50.5,0c-1.4,0-2.5,1.1-2.5,2.5c0,19.2,0,38.4,0,57.6c0,11.1,0,22.3,0,33.4
		c0,7-1.1,11.5-2.5,19.4c-0.4,2.4-0.8,5-1.4,7.4c-0.5,2,1-1-0.3,0.8c-2.5,3.5-6,6.7-8.9,9.9c-8.1,9.1-16.3,18.2-24.4,27.4
		c-3.4,3.8-6.8,7.5-10.5,10.9c-2.1,1.9-4.4,4-6.8,5.5c-1.3,0.8-2.5,1.4-3.9,1.9c-4.4,1.7-4.8,1.6-8.2-2.1
		c-2.9-3.2-3.4-3.3-2.5-7.2c0.4-1.6,1-2.9,1.7-4.4c0.5-1.1,0.8-1.6,1.2-2.4c4.7-8.6,9.8-17,14.7-25.5c5.4-9.4,11-18.8,16.3-28.2
		c5.6-9.9,5.1-25.1-9.7-25.1c-12.6,0-21,11.1-26.8,21c-5.5,9.3-10.5,19-15.7,28.5c-6.7,12.2-13.3,24.3-20.3,36.3
		c-2,3.4-4.2,6.6-6.1,9.9c-1.7,2.9-0.2,0.7,0.9-1c12.5-19.1,23.1-39.9,33.9-59.9c4.2-7.8,9.8-16.3,12.3-24.9
		c3.3-11.4-11.2-11-17.4-5.6c-9.2,7.9-17,18.6-25.1,27.6c-4.9,5.4-9.1,10.8-13.8,15.9c-7,7.7-13.9,15.5-20.9,23.2
		c-7.1,7.8-14.9,16.4-24.2,21.7c-5.5,3.1-14,6.3-20,2.9c-7-4.1-7.6-12.5-6.3-19.7c2.3-12.4,8.4-22.1,14.1-33
		c5.6-10.7,12.5-21.1,21.8-29.1c4.1-3.5,8.9-6.7,14.2-8.1c3-0.8,5.9-1,9-0.6c4.8,0.7,9,5.6,7.5,10.6
		c-3.5,11.5-22.1,16.5-32.2,19.6c-7.8,2.4-15.7,4.9-23.6,6.6c-5.4,1.1-8.9,3.1-12.2,7.7c-10.9,14.7-13.5,34.6-31.2,43.9
		c-22.3,11.6-50-3-68-16.5c-17.2-12.8-29.2-32.2-48.9-41.8c-18.5-9-41.1-12.3-61.2-7.2c-17.4,4.4-34.5,15.3-37.3,34.2
		c-2.6,17,8.1,32.6,24.3,37.7c13.6,4.3,26.3,1.1,37.3-7.2c18-13.6,31-32.3,47.1-47.8c12.5-12.1,25-24.3,37.6-36.4
		c34-32.9,68-65.9,101.9-98.8c2.3-2.2,4.6-4.4,6.8-6.6c1.2-1.2,0.8-3.9-1.1-4.2c-6.3-0.9-9,0-15.5,1.8
		c-10.2,2.8-20.7,4.5-31.3,4.3c-18.7-0.5-36.8-7.1-55.3-9.6c-17.4-2.3-36-2.2-51.3,7.5c-12.9,8.2-22.6,21.6-24.1,37.1
		c-1.4,15.1,4.5,30.9,17.6,39.2c10.2,6.5,28,10.5,37.3,0.6c10.2-10.9,1.5-26.7-9.9-32.3c-15.3-7.5-35.1-4.6-50.8,0
		c-18.2,5.4-35,14.7-51.2,24.3c-18.1,10.7-35.5,22.3-52.7,34.2c-24.9,17.2-49.4,35-75,51c-21.8,13.6-45.7,23.9-70.6,30.1
		c-22.4,5.6-45.1,7.1-68.1,7.1c-37.4,0-74.9,0-112.3,0c-3.2,0-3.2,5,0,5c29.5,0,59,0,88.5,0c11.5,0,23,0,34.5,0
		c28.2-0.1,56.2-5,82.7-14.6c45.2-16.4,83.7-47.2,122.9-74.3c30.4-20.9,62.3-44.2,97.5-56.3c16-5.5,38.7-10.5,54.3-1.1
		c10.8,6.5,14.6,24.6-1.1,27.4c-8.4,1.5-18.3-1.7-25-6.7c-18.5-13.7-16.7-41.6-2.4-57.6c14.7-16.4,36.2-18.4,56.8-16
		c18.6,2.2,36.5,8.8,55.2,9.8c9,0.5,18-0.5,26.8-2.3c7.3-1.5,13.9-4.9,21.2-3.8c-0.4-1.4-0.7-2.8-1.1-4.2
		c-27.9,27.1-55.9,54.2-83.8,81.2c-26,25.2-52.9,49.7-77.2,76.6c-11.1,12.4-23,26.6-37.7,34.9c-19.6,11.1-48.8-0.7-48.2-25.5
		c0.7-28,34.9-37.2,57.7-35.9c12.7,0.7,25.8,4.1,37,10.3c10,5.5,18,14,25.9,22.1c24.7,24.9,74.7,60.3,105.5,24.2
		c5.5-6.5,9.3-14.2,12.9-21.9c3.1-6.5,6.6-16.3,14.2-18.4c16.8-4.8,35.2-7.4,50.2-17.1c6.6-4.3,12.8-10.1,12.1-18.6
		c-0.6-7.2-6-10.4-12.6-11.2c-19.6-2.5-35.2,16.5-44.4,31.3c-5.3,8.5-11.3,18-15,27.3c-3.5,8.7-7.9,21.2-4.5,30.6
		c6.7,18.3,26.5,13.5,38.9,4c17.8-13.5,33.3-33.4,47.3-50c6.7-8,14.1-15.6,21-23.4c2.3-2.5,4.4-5.2,6.7-7.7
		c1.4-1.5,2.8-3.4,4.5-4.5c2-1.4,8.8-4.1,9.4-0.5c0.4,2.3-3,7.2-3.9,9.2c-11.2,22.9-24.3,44.9-37.1,67c-1.9,3.3-8.1,10.5-7,14.9
		c1.2,4.8,5.8,4.3,8.3,1.5c2-2.3,3.5-5,5.1-7.6c13.2-21.9,24.8-44.7,37.3-66.9c2.4-4.3,4.9-8.7,8.3-12.3c2.8-3.1,6.3-5.8,10.3-7.1
		c6.3-2.1,12.9,0.5,13.7,7.6c0.3,2.5-1.3,5.5-2.4,7.6c-4.3,8.3-9.4,16.3-14.1,24.4c-5.6,9.8-11.3,19.5-16.9,29.3
		c-5.1,8.9-8.8,26.9,6.9,26.3c12.7-0.5,22.4-13.6,30.2-22.4c8.4-9.5,16.9-18.9,25.3-28.4c2.3-2.5,5.6-5.2,7.3-8.1
		c1.7-3,1.8-7,2.5-10.4c1.2-6.5,2.6-12.6,2.6-19.2c0-24.3,0-48.7,0-73c0-6.2,0-12.5,0-18.7c-0.8,0.8-1.7,1.7-2.5,2.5
		c27.1,0,54.2,0,81.4,0c20.6,0,40.5,7.3,43.9,30c1.7,11.5,0.1,24.9-10.5,31.5c-7.7,4.7-17.4,5.4-26.2,5.6
		c-15.3,0.3-30.7,0.5-46,0.7c-1.3,0-2.5,1.1-2.5,2.5c0.1,6.8,0.2,13.6,0.3,20.4c0,1.3,1.1,2.5,2.5,2.5c15-0.4,30-0.9,45-1.1
		c22.7-0.3,42.2,10.6,43.3,34.9c0.5,12.1-1.2,26-9.6,35.3c-8.7,9.7-22.3,11.7-34.7,11.9c-13.2,0.1-26.4,0-39.6,0
		c-15.8,0-31.5,0-47.3,0c0.8,0.8,1.7,1.7,2.5,2.5c0-0.4-0.1-0.7-0.1-1.1c-0.6,0.8-1.2,1.6-1.8,2.4c9.8-2.2,19.6-4.5,29.1-7.8
		c9.5-3.3,18.6-7.6,28.3-10.5c19.1-5.6,39.2-7.2,58.7-11.2c18.6-3.7,40.4-7.8,56.1-19.1c6.7-4.8,12.3-10.9,17.6-17.2
		c5.3-6.3,11.2-12.7,14.6-20.4c4.9-11,3.9-26.8-9.3-31.4c-11.2-3.9-22.6,8-28.6,16.3c-15.3,21.3-15.8,55.5-1.4,77.4
		c13.9,21.2,41.5,27.8,65.2,22.1c25.4-6.1,39.9-28.1,41.8-53.4c1.8-24.4-5.8-52.5-29.8-63.4c-4.8-2.2-9.9-3.6-15.1-4.3
		c-3.9-0.6-10.8-2.1-14.4,0c-4.5,2.5-5.5,10-4.8,14.4c0.9,5.9,4.6,10.2,10,12.6c7.7,3.3,17.7,2.6,25.8,1.8
		c8.8-0.9,17.5-2.9,25.5-6.9c10.4-5.2,20.5-13.5,22.2-25.6c1.2-8.6,0.4-17.8,0.4-26.4c0-8.7,0-17.3,0-26c-0.8,0.8-1.7,1.7-2.5,2.5
		c8.9,0,17.8,0,26.7,0c-0.8-0.8-1.7-1.7-2.5-2.5c0,15.3,0,30.6,0,45.9c0,1.4,1.1,2.5,2.5,2.5c10.5,0,21.1,0,31.6,0
		c-0.8-0.8-1.7-1.7-2.5-2.5c0,8.1,0,16.1,0,24.2c0.8-0.8,1.7-1.7,2.5-2.5c-10.5,0-21.1,0-31.6,0c-1.4,0-2.5,1.1-2.5,2.5
		c0,17.6,0,35.1,0,52.7c0,7.9-0.5,16.4,4,23.3c7.5,11.5,22.6,8.8,33.3,4.4c-1.1-0.8-2.1-1.6-3.2-2.4c0,8.5,0,17,0,25.5
		c0.6-0.8,1.2-1.6,1.8-2.4c-17.8,4.7-41,4.9-51.7-13c-7.9-13.3-9.5-37.1-0.6-50.4c10.6-15.9,39.5-17.6,56.3-16.2
		c20.1,1.6,38.1,10.9,54.3,22.2c32.7,22.9,61.7,55.5,103.3,61.3c20.8,2.9,42.1,1.6,63.1,2.1c16.9,0.4,33.8,0.7,50.7,1
		c39.9,0.7,79.8,1.1,119.7,2.2C1471.8,479.2,1471.8,474.2,1468.6,474.2L1468.6,474.2z"/>
</svg>
